<svg width="159" height="38" viewBox="0 0 159 38" fill="none" xmlns="http://www.w3.org/2000/svg">
<path fill-rule="evenodd" clip-rule="evenodd" d="M20.9832 1.28494C20.9832 0.944154 20.8478 0.617324 20.6068 0.37635C20.3658 0.135377 20.039 0 19.6982 0C19.3574 0 19.0306 0.135377 18.7896 0.37635C18.5487 0.617324 18.4133 0.944154 18.4133 1.28494V4.28314H15.0313C14.4294 4.28287 13.8414 4.46375 13.3438 4.80225L10.4398 6.77935C10.3685 6.82763 10.2843 6.8533 10.1982 6.85302H3.17046C2.82967 6.85302 2.50284 6.9884 2.26186 7.22937C2.02089 7.47034 1.88551 7.79717 1.88551 8.13796C1.88551 8.47875 2.02089 8.80558 2.26186 9.04655C2.50284 9.28753 2.82967 9.4229 3.17046 9.4229H5.87226L0.103728 22.5807C-0.0052327 22.8375 -0.0290885 23.1224 0.0356571 23.3937C0.100403 23.665 0.250345 23.9085 0.463512 24.0884C0.600572 24.198 0.739346 24.3025 0.992908 24.467C1.31157 24.6743 1.7673 24.9433 2.34981 25.2088C3.51482 25.7417 5.19724 26.2711 7.27713 26.2711C8.97673 26.2743 10.6572 25.9121 12.2044 25.2088C12.787 24.9433 13.2427 24.6743 13.5613 24.467C13.8183 24.3008 13.9554 24.1963 14.0925 24.0849C14.3073 23.9071 14.4585 23.6641 14.5231 23.3927C14.5877 23.1213 14.5622 22.8363 14.4505 22.5807L8.68028 9.4229H10.1982C10.7996 9.4229 11.3872 9.2413 11.8841 8.90379L14.7898 6.92669C14.8606 6.87874 14.9441 6.85308 15.0296 6.85302H18.4133V31.6952H10.7259C10.3851 31.6952 10.0583 31.8306 9.81732 32.0716C9.57635 32.3125 9.44097 32.6394 9.44097 32.9802C9.44097 33.3209 9.57635 33.6478 9.81732 33.8888C10.0583 34.1297 10.3851 34.2651 10.7259 34.2651H28.6705C29.0113 34.2651 29.3382 34.1297 29.5791 33.8888C29.8201 33.6478 29.9555 33.3209 29.9555 32.9802C29.9555 32.6394 29.8201 32.3125 29.5791 32.0716C29.3382 31.8306 29.0113 31.6952 28.6705 31.6952H20.9832V6.85302H24.3651C24.4508 6.85302 24.5365 6.87872 24.605 6.92669L27.5124 8.90379C28.0092 9.2413 28.5969 9.4229 29.1982 9.4229H30.7162L24.9459 22.5807C24.8306 22.8438 24.8067 23.138 24.8781 23.4162C24.9495 23.6945 25.1121 23.9408 25.34 24.1158C25.3605 24.1312 25.34 24.1158 25.3434 24.1158C25.5133 24.2438 25.6907 24.3616 25.8745 24.4687C26.1915 24.6606 26.6455 24.9073 27.228 25.154C28.7772 25.8016 30.4403 26.1324 32.1193 26.1271C33.7991 26.1321 35.4628 25.8007 37.0124 25.1523C37.5915 24.9073 38.0472 24.6606 38.3659 24.4687C38.549 24.3606 38.7263 24.2428 38.897 24.1158C39.1248 23.9408 39.2874 23.6945 39.3588 23.4162C39.4303 23.138 39.4064 22.8438 39.291 22.5807L33.5242 9.4229H36.2277C36.5685 9.4229 36.8953 9.28753 37.1363 9.04655C37.3773 8.80558 37.5127 8.47875 37.5127 8.13796C37.5127 7.79717 37.3773 7.47034 37.1363 7.22937C36.8953 6.9884 36.5685 6.85302 36.2277 6.85302H29.1999C29.1144 6.85296 29.0309 6.8273 28.9601 6.77935L26.0527 4.80225C25.5555 4.46408 24.9681 4.28321 24.3668 4.28314H20.9832V1.28494ZM2.89633 22.6115C4.24484 23.3291 5.74959 23.7028 7.27713 23.6995C8.80466 23.7028 10.3094 23.3291 11.6579 22.6115L7.27713 12.6233L2.89633 22.6115ZM27.7557 22.5704C27.8962 22.639 28.0538 22.7126 28.2268 22.7863C29.1348 23.1683 30.4626 23.5573 32.1193 23.5573C33.6297 23.5615 35.1215 23.2242 36.483 22.5704L32.1193 12.6216L27.7557 22.5704Z" fill="#071633"/>
<path d="M61.4673 0.141357C62.8294 0.141357 63.9922 0.436894 64.9559 1.02797C65.9196 1.61904 66.6456 2.45425 67.1339 3.5336C67.635 4.61295 67.8856 5.86577 67.8856 7.29206C67.8856 8.71834 67.635 9.97116 67.1339 11.0505C66.6456 12.1299 65.9196 12.9651 64.9559 13.5561C63.9922 14.1472 62.8294 14.4428 61.4673 14.4428C59.5913 14.4428 58.1072 13.9031 57.015 12.8237C55.9228 11.7315 55.2867 10.2538 55.1069 8.39068H53.218V14.1344H50.3847V0.449743H53.218V6.17416H55.1069C55.2867 4.29814 55.9228 2.82688 57.015 1.76038C58.1072 0.681032 59.5913 0.141357 61.4673 0.141357ZM64.9174 6.84875C64.9174 5.49956 64.6218 4.41379 64.0308 3.59142C63.4525 2.75621 62.5981 2.33861 61.4673 2.33861C60.3494 2.33861 59.4949 2.75621 58.9039 3.59142C58.3256 4.41379 58.0365 5.49956 58.0365 6.84875V7.73536C58.0365 9.08455 58.3256 10.1767 58.9039 11.012C59.4949 11.8343 60.3494 12.2455 61.4673 12.2455C62.5981 12.2455 63.4525 11.8343 64.0308 11.012C64.6218 10.1767 64.9174 9.08455 64.9174 7.73536V6.84875Z" fill="#071633"/>
<path d="M77.527 0.449743C78.4136 0.449743 79.2039 0.642484 79.8977 1.02797C80.5916 1.41345 81.1313 1.9467 81.5168 2.62772C81.9023 3.29589 82.095 4.054 82.095 4.90206C82.095 5.75013 81.9023 6.51467 81.5168 7.19568C81.1313 7.86385 80.5916 8.39068 79.8977 8.77616C79.2039 9.16164 78.4136 9.35439 77.527 9.35439H73.1133V14.1344H70.28V0.449743H77.527ZM79.2424 4.69005C79.2424 4.03473 79.0176 3.5336 78.5678 3.18667C78.1309 2.82688 77.572 2.64699 76.891 2.64699H73.1133V7.15714H76.891C77.5591 7.15714 78.1181 6.97724 78.5678 6.61746C79.0176 6.25768 79.2424 5.75655 79.2424 5.11408V4.69005Z" fill="#071633"/>
<path d="M96.5004 0.449743V14.1344H93.725V3.68779L87.9042 14.1344H84.4348V0.449743H87.191V10.7807L92.954 0.449743H96.5004Z" fill="#071633"/>
<path d="M105.618 14.4428C104.179 14.4428 102.952 14.1472 101.937 13.5561C100.935 12.9522 100.17 12.1106 99.6433 11.0312C99.1293 9.95188 98.8724 8.70549 98.8724 7.29206C98.8724 5.87862 99.1293 4.63223 99.6433 3.55288C100.17 2.47353 100.935 1.63831 101.937 1.04724C102.952 0.443318 104.179 0.141357 105.618 0.141357C106.878 0.141357 107.983 0.359797 108.933 0.796677C109.884 1.23356 110.642 1.86318 111.208 2.68554C111.773 3.49505 112.114 4.44591 112.229 5.53811H109.3C109.107 4.56156 108.696 3.79059 108.066 3.22522C107.449 2.64699 106.633 2.35788 105.618 2.35788C104.398 2.35788 103.466 2.77549 102.824 3.6107C102.181 4.43306 101.86 5.51884 101.86 6.86803V7.71609C101.86 9.06527 102.181 10.1575 102.824 10.9927C103.479 11.815 104.41 12.2262 105.618 12.2262C106.672 12.2262 107.514 11.9243 108.143 11.3203C108.786 10.7036 109.184 9.87479 109.338 8.83399H112.268C112.178 9.96473 111.85 10.9541 111.285 11.8022C110.72 12.6503 109.955 13.3056 108.991 13.7682C108.028 14.2179 106.903 14.4428 105.618 14.4428Z" fill="#071633"/>
<path d="M117.588 2.64699H113.251V0.449743H124.815V2.64699H120.44V14.1344H117.588V2.64699Z" fill="#071633"/>
<path d="M53.8926 26.2042H49.5559V24.007H61.1204V26.2042H56.7452V37.6916H53.8926V26.2042Z" fill="#071633"/>
<path d="M70.649 34.762H64.809L63.8453 37.6916H61.0312L65.6763 24.007H69.8973L74.5424 37.6916H71.6127L70.649 34.762ZM69.9359 32.5454L67.7386 25.838L65.5414 32.5454H69.9359Z" fill="#071633"/>
<path d="M76.5478 24.007H85.7223V26.2042H79.3811V37.6916H76.5478V24.007Z" fill="#071633"/>
<path d="M99.8885 24.007V37.6916H97.113V27.2451L91.2922 37.6916H87.8229V24.007H90.5791V34.3379L96.342 24.007H99.8885Z" fill="#071633"/>
<path d="M110.259 24.007C111.146 24.007 111.936 24.1997 112.63 24.5852C113.324 24.9707 113.863 25.504 114.249 26.185C114.634 26.8531 114.827 27.6113 114.827 28.4593C114.827 29.3074 114.634 30.0719 114.249 30.7529C113.863 31.4211 113.324 31.9479 112.63 32.3334C111.936 32.7189 111.146 32.9116 110.259 32.9116H105.845V37.6916H103.012V24.007H110.259ZM111.975 28.2473C111.975 27.592 111.75 27.0909 111.3 26.7439C110.863 26.3841 110.304 26.2042 109.623 26.2042H105.845V30.7144H109.623C110.291 30.7144 110.85 30.5345 111.3 30.1747C111.75 29.8149 111.975 29.3138 111.975 28.6713V28.2473Z" fill="#071633"/>
<path d="M123.255 38C121.816 38 120.589 37.7045 119.574 37.1134C118.559 36.5223 117.788 35.6871 117.261 34.6078C116.747 33.5284 116.49 32.2756 116.49 30.8493C116.49 29.423 116.747 28.1702 117.261 27.0909C117.788 26.0115 118.559 25.1763 119.574 24.5852C120.589 23.9942 121.816 23.6986 123.255 23.6986C124.694 23.6986 125.922 23.9942 126.937 24.5852C127.952 25.1763 128.716 26.0115 129.23 27.0909C129.757 28.1702 130.021 29.423 130.021 30.8493C130.021 32.2756 129.757 33.5284 129.23 34.6078C128.716 35.6871 127.952 36.5223 126.937 37.1134C125.922 37.7045 124.694 38 123.255 38ZM123.255 35.8028C124.476 35.8028 125.408 35.3916 126.05 34.5692C126.705 33.734 127.033 32.6418 127.033 31.2926V30.406C127.033 29.0568 126.705 27.971 126.05 27.1487C125.408 26.3135 124.476 25.8959 123.255 25.8959C122.035 25.8959 121.097 26.3135 120.441 27.1487C119.799 27.971 119.478 29.0568 119.478 30.406V31.2926C119.478 32.6418 119.799 33.734 120.441 34.5692C121.097 35.3916 122.035 35.8028 123.255 35.8028Z" fill="#071633"/>
<path d="M141.78 30.5602C142.487 30.7915 143.065 31.177 143.515 31.7166C143.978 32.2435 144.209 32.9373 144.209 33.7983C144.209 34.5821 144.029 35.2695 143.669 35.8606C143.322 36.4517 142.834 36.9078 142.204 37.229C141.575 37.5374 140.862 37.6916 140.065 37.6916H132.394V24.007H139.564C140.322 24.007 141.016 24.1483 141.645 24.431C142.288 24.7009 142.795 25.112 143.168 25.6646C143.554 26.2042 143.746 26.8596 143.746 27.6305C143.746 28.3886 143.554 29.0183 143.168 29.5194C142.795 30.0205 142.333 30.3675 141.78 30.5602ZM135.227 26.185V29.6736H138.908C139.487 29.6736 139.962 29.5387 140.335 29.2688C140.707 28.999 140.894 28.5878 140.894 28.0353V27.7655C140.894 27.2258 140.707 26.8274 140.335 26.5705C139.975 26.3135 139.506 26.185 138.928 26.185H135.227ZM141.318 33.5477C141.318 32.9566 141.125 32.5197 140.74 32.237C140.354 31.9415 139.859 31.7937 139.255 31.7937H135.227V35.5136H139.255C139.859 35.5136 140.354 35.3787 140.74 35.1089C141.125 34.8262 141.318 34.3893 141.318 33.7983V33.5477Z" fill="#071633"/>
<path d="M154.842 34.762H149.001L148.038 37.6916H145.224L149.869 24.007H154.09L158.735 37.6916H155.805L154.842 34.762ZM154.128 32.5454L151.931 25.838L149.734 32.5454H154.128Z" fill="#071633"/>
</svg>
