<svg width="160" height="38" viewBox="0 0 160 38" fill="none" xmlns="http://www.w3.org/2000/svg">
<path fill-rule="evenodd" clip-rule="evenodd" d="M21.918 1.28494C21.918 0.944154 21.7826 0.617324 21.5416 0.37635C21.3007 0.135377 20.9738 0 20.633 0C20.2923 0 19.9654 0.135377 19.7245 0.37635C19.4835 0.617324 19.3481 0.944154 19.3481 1.28494V4.28314H15.9661C15.3643 4.28287 14.7762 4.46375 14.2786 4.80225L11.3746 6.77935C11.3033 6.82763 11.2191 6.8533 11.133 6.85302H4.10527C3.76448 6.85302 3.43765 6.9884 3.19668 7.22937C2.95571 7.47034 2.82033 7.79717 2.82033 8.13796C2.82033 8.47875 2.95571 8.80558 3.19668 9.04655C3.43765 9.28753 3.76448 9.4229 4.10527 9.4229H6.80707L1.03854 22.5807C0.929582 22.8375 0.905726 23.1224 0.970472 23.3937C1.03522 23.665 1.18516 23.9085 1.39833 24.0884C1.53539 24.198 1.67416 24.3025 1.92772 24.467C2.24639 24.6743 2.70211 24.9433 3.28462 25.2088C4.44963 25.7417 6.13205 26.2711 8.21194 26.2711C9.91154 26.2743 11.592 25.9121 13.1393 25.2088C13.7218 24.9433 14.1775 24.6743 14.4962 24.467C14.7532 24.3008 14.8902 24.1963 15.0273 24.0849C15.2421 23.9071 15.3933 23.6641 15.4579 23.3927C15.5225 23.1213 15.497 22.8363 15.3853 22.5807L9.6151 9.4229H11.133C11.7344 9.4229 12.322 9.2413 12.8189 8.90379L15.7246 6.92669C15.7954 6.87874 15.8789 6.85308 15.9644 6.85302H19.3481V31.6952H11.6607C11.3199 31.6952 10.9931 31.8306 10.7521 32.0716C10.5112 32.3125 10.3758 32.6394 10.3758 32.9802C10.3758 33.3209 10.5112 33.6478 10.7521 33.8888C10.9931 34.1297 11.3199 34.2651 11.6607 34.2651H29.6054C29.9461 34.2651 30.273 34.1297 30.514 33.8888C30.7549 33.6478 30.8903 33.3209 30.8903 32.9802C30.8903 32.6394 30.7549 32.3125 30.514 32.0716C30.273 31.8306 29.9461 31.6952 29.6054 31.6952H21.918V6.85302H25.2999C25.3856 6.85302 25.4713 6.87872 25.5398 6.92669L28.4472 8.90379C28.944 9.2413 29.5317 9.4229 30.133 9.4229H31.651L25.8807 22.5807C25.7654 22.8438 25.7415 23.138 25.8129 23.4162C25.8843 23.6945 26.047 23.9408 26.2748 24.1158C26.2954 24.1312 26.2748 24.1158 26.2782 24.1158C26.4482 24.2438 26.6255 24.3616 26.8093 24.4687C27.1263 24.6606 27.5803 24.9073 28.1628 25.154C29.712 25.8016 31.3751 26.1324 33.0541 26.1271C34.7339 26.1321 36.3976 25.8007 37.9472 25.1523C38.5263 24.9073 38.982 24.6606 39.3007 24.4687C39.4838 24.3606 39.6611 24.2428 39.8318 24.1158C40.0596 23.9408 40.2222 23.6945 40.2937 23.4162C40.3651 23.138 40.3412 22.8438 40.2258 22.5807L34.459 9.4229H37.1625C37.5033 9.4229 37.8301 9.28753 38.0711 9.04655C38.3121 8.80558 38.4475 8.47875 38.4475 8.13796C38.4475 7.79717 38.3121 7.47034 38.0711 7.22937C37.8301 6.9884 37.5033 6.85302 37.1625 6.85302H30.1348C30.0492 6.85296 29.9657 6.8273 29.8949 6.77935L26.9875 4.80225C26.4903 4.46408 25.903 4.28321 25.3017 4.28314H21.918V1.28494ZM3.83115 22.6115C5.17965 23.3291 6.68441 23.7028 8.21194 23.6995C9.73948 23.7028 11.2442 23.3291 12.5927 22.6115L8.21194 12.6233L3.83115 22.6115ZM28.6905 22.5704C28.831 22.639 28.9886 22.7126 29.1616 22.7863C30.0697 23.1683 31.3974 23.5573 33.0541 23.5573C34.5645 23.5615 36.0563 23.2242 37.4178 22.5704L33.0541 12.6216L28.6905 22.5704Z" fill="white"/>
<path d="M62.4021 0.141357C63.7642 0.141357 64.927 0.436894 65.8907 1.02797C66.8545 1.61904 67.5804 2.45425 68.0687 3.5336C68.5698 4.61295 68.8204 5.86577 68.8204 7.29206C68.8204 8.71834 68.5698 9.97116 68.0687 11.0505C67.5804 12.1299 66.8545 12.9651 65.8907 13.5561C64.927 14.1472 63.7642 14.4428 62.4021 14.4428C60.5261 14.4428 59.042 13.9031 57.9498 12.8237C56.8576 11.7315 56.2216 10.2538 56.0417 8.39068H54.1528V14.1344H51.3195V0.449743H54.1528V6.17416H56.0417C56.2216 4.29814 56.8576 2.82688 57.9498 1.76038C59.042 0.681032 60.5261 0.141357 62.4021 0.141357ZM65.8522 6.84875C65.8522 5.49956 65.5567 4.41379 64.9656 3.59142C64.3874 2.75621 63.5329 2.33861 62.4021 2.33861C61.2842 2.33861 60.4297 2.75621 59.8387 3.59142C59.2604 4.41379 58.9713 5.49956 58.9713 6.84875V7.73536C58.9713 9.08455 59.2604 10.1767 59.8387 11.012C60.4297 11.8343 61.2842 12.2455 62.4021 12.2455C63.5329 12.2455 64.3874 11.8343 64.9656 11.012C65.5567 10.1767 65.8522 9.08455 65.8522 7.73536V6.84875Z" fill="white"/>
<path d="M78.4618 0.449743C79.3484 0.449743 80.1387 0.642484 80.8326 1.02797C81.5264 1.41345 82.0661 1.9467 82.4516 2.62772C82.8371 3.29589 83.0298 4.054 83.0298 4.90206C83.0298 5.75013 82.8371 6.51467 82.4516 7.19568C82.0661 7.86385 81.5264 8.39068 80.8326 8.77616C80.1387 9.16164 79.3484 9.35439 78.4618 9.35439H74.0481V14.1344H71.2148V0.449743H78.4618ZM80.1772 4.69005C80.1772 4.03473 79.9524 3.5336 79.5026 3.18667C79.0658 2.82688 78.5068 2.64699 77.8258 2.64699H74.0481V7.15714H77.8258C78.494 7.15714 79.0529 6.97724 79.5026 6.61746C79.9524 6.25768 80.1772 5.75655 80.1772 5.11408V4.69005Z" fill="white"/>
<path d="M97.4353 0.449743V14.1344H94.6598V3.68779L88.839 14.1344H85.3697V0.449743H88.1259V10.7807L93.8888 0.449743H97.4353Z" fill="white"/>
<path d="M106.553 14.4428C105.114 14.4428 103.887 14.1472 102.872 13.5561C101.87 12.9522 101.105 12.1106 100.578 11.0312C100.064 9.95188 99.8072 8.70549 99.8072 7.29206C99.8072 5.87862 100.064 4.63223 100.578 3.55288C101.105 2.47353 101.87 1.63831 102.872 1.04724C103.887 0.443318 105.114 0.141357 106.553 0.141357C107.812 0.141357 108.917 0.359797 109.868 0.796677C110.819 1.23356 111.577 1.86318 112.143 2.68554C112.708 3.49505 113.048 4.44591 113.164 5.53811H110.234C110.042 4.56156 109.631 3.79059 109.001 3.22522C108.384 2.64699 107.568 2.35788 106.553 2.35788C105.332 2.35788 104.401 2.77549 103.758 3.6107C103.116 4.43306 102.795 5.51884 102.795 6.86803V7.71609C102.795 9.06527 103.116 10.1575 103.758 10.9927C104.414 11.815 105.345 12.2262 106.553 12.2262C107.607 12.2262 108.448 11.9243 109.078 11.3203C109.72 10.7036 110.119 9.87479 110.273 8.83399H113.203C113.113 9.96473 112.785 10.9541 112.22 11.8022C111.654 12.6503 110.89 13.3056 109.926 13.7682C108.962 14.2179 107.838 14.4428 106.553 14.4428Z" fill="white"/>
<path d="M118.522 2.64699H114.186V0.449743H125.75V2.64699H121.375V14.1344H118.522V2.64699Z" fill="white"/>
<path d="M54.8274 26.2042H50.4907V24.007H62.0552V26.2042H57.68V37.6916H54.8274V26.2042Z" fill="white"/>
<path d="M71.5838 34.762H65.7438L64.7801 37.6916H61.9661L66.6111 24.007H70.8321L75.4772 37.6916H72.5475L71.5838 34.762ZM70.8707 32.5454L68.6734 25.838L66.4762 32.5454H70.8707Z" fill="white"/>
<path d="M77.4826 24.007H86.6571V26.2042H80.3159V37.6916H77.4826V24.007Z" fill="white"/>
<path d="M100.823 24.007V37.6916H98.0478V27.2451L92.227 37.6916H88.7577V24.007H91.5139V34.3379L97.2768 24.007H100.823Z" fill="white"/>
<path d="M111.194 24.007C112.081 24.007 112.871 24.1997 113.565 24.5852C114.259 24.9707 114.798 25.504 115.184 26.185C115.569 26.8531 115.762 27.6113 115.762 28.4593C115.762 29.3074 115.569 30.0719 115.184 30.7529C114.798 31.4211 114.259 31.9479 113.565 32.3334C112.871 32.7189 112.081 32.9116 111.194 32.9116H106.78V37.6916H103.947V24.007H111.194ZM112.909 28.2473C112.909 27.592 112.684 27.0909 112.235 26.7439C111.798 26.3841 111.239 26.2042 110.558 26.2042H106.78V30.7144H110.558C111.226 30.7144 111.785 30.5345 112.235 30.1747C112.684 29.8149 112.909 29.3138 112.909 28.6713V28.2473Z" fill="white"/>
<path d="M124.19 38C122.751 38 121.524 37.7045 120.509 37.1134C119.494 36.5223 118.723 35.6871 118.196 34.6078C117.682 33.5284 117.425 32.2756 117.425 30.8493C117.425 29.423 117.682 28.1702 118.196 27.0909C118.723 26.0115 119.494 25.1763 120.509 24.5852C121.524 23.9942 122.751 23.6986 124.19 23.6986C125.629 23.6986 126.856 23.9942 127.871 24.5852C128.887 25.1763 129.651 26.0115 130.165 27.0909C130.692 28.1702 130.955 29.423 130.955 30.8493C130.955 32.2756 130.692 33.5284 130.165 34.6078C129.651 35.6871 128.887 36.5223 127.871 37.1134C126.856 37.7045 125.629 38 124.19 38ZM124.19 35.8028C125.411 35.8028 126.342 35.3916 126.985 34.5692C127.64 33.734 127.968 32.6418 127.968 31.2926V30.406C127.968 29.0568 127.64 27.971 126.985 27.1487C126.342 26.3135 125.411 25.8959 124.19 25.8959C122.969 25.8959 122.031 26.3135 121.376 27.1487C120.734 27.971 120.412 29.0568 120.412 30.406V31.2926C120.412 32.6418 120.734 33.734 121.376 34.5692C122.031 35.3916 122.969 35.8028 124.19 35.8028Z" fill="white"/>
<path d="M142.715 30.5602C143.422 30.7915 144 31.177 144.45 31.7166C144.912 32.2435 145.144 32.9373 145.144 33.7983C145.144 34.5821 144.964 35.2695 144.604 35.8606C144.257 36.4517 143.769 36.9078 143.139 37.229C142.51 37.5374 141.796 37.6916 141 37.6916H133.329V24.007H140.499C141.257 24.007 141.951 24.1483 142.58 24.431C143.223 24.7009 143.73 25.112 144.103 25.6646C144.488 26.2042 144.681 26.8596 144.681 27.6305C144.681 28.3886 144.488 29.0183 144.103 29.5194C143.73 30.0205 143.268 30.3675 142.715 30.5602ZM136.162 26.185V29.6736H139.843C140.422 29.6736 140.897 29.5387 141.27 29.2688C141.642 28.999 141.829 28.5878 141.829 28.0353V27.7655C141.829 27.2258 141.642 26.8274 141.27 26.5705C140.91 26.3135 140.441 26.185 139.863 26.185H136.162ZM142.253 33.5477C142.253 32.9566 142.06 32.5197 141.674 32.237C141.289 31.9415 140.794 31.7937 140.19 31.7937H136.162V35.5136H140.19C140.794 35.5136 141.289 35.3787 141.674 35.1089C142.06 34.8262 142.253 34.3893 142.253 33.7983V33.5477Z" fill="white"/>
<path d="M155.776 34.762H149.936L148.973 37.6916H146.159L150.804 24.007H155.025L159.67 37.6916H156.74L155.776 34.762ZM155.063 32.5454L152.866 25.838L150.669 32.5454H155.063Z" fill="white"/>
</svg>
