<svg width="136" height="39" viewBox="0 0 136 39" fill="none" xmlns="http://www.w3.org/2000/svg">
<path fill-rule="evenodd" clip-rule="evenodd" d="M20.2842 4.37508C20.2842 4.05862 20.1585 3.75513 19.9347 3.53136C19.7109 3.3076 19.4074 3.18188 19.091 3.18188C18.7745 3.18188 18.471 3.3076 18.2473 3.53136C18.0235 3.75513 17.8978 4.05862 17.8978 4.37508V7.15919H14.7573C14.1984 7.15894 13.6524 7.3269 13.1903 7.64123L10.4937 9.47716C10.4275 9.52199 10.3493 9.54583 10.2693 9.54557H3.74339C3.42693 9.54557 3.12344 9.67128 2.89967 9.89504C2.67591 10.1188 2.5502 10.4223 2.5502 10.7388C2.5502 11.0552 2.67591 11.3587 2.89967 11.5825C3.12344 11.8062 3.42693 11.9319 3.74339 11.9319H6.25227L0.895638 24.1502C0.794457 24.3887 0.772305 24.6532 0.832427 24.9052C0.89255 25.1571 1.03179 25.3832 1.22973 25.5502C1.35701 25.652 1.48587 25.7491 1.72133 25.9018C2.01724 26.0943 2.44042 26.3441 2.98133 26.5907C4.06316 27.0855 5.62544 27.5771 7.55682 27.5771C9.13506 27.5801 10.6955 27.2437 12.1323 26.5907C12.6732 26.3441 13.0964 26.0943 13.3923 25.9018C13.631 25.7475 13.7582 25.6505 13.8855 25.547C14.085 25.3819 14.2254 25.1562 14.2854 24.9042C14.3454 24.6522 14.3217 24.3876 14.218 24.1502L8.85979 11.9319H10.2693C10.8278 11.9319 11.3734 11.7633 11.8348 11.4499L14.533 9.61398C14.5988 9.56945 14.6763 9.54562 14.7557 9.54557H17.8978V32.6139H10.7593C10.4429 32.6139 10.1394 32.7396 9.91563 32.9634C9.69187 33.1872 9.56615 33.4906 9.56615 33.8071C9.56615 34.1236 9.69187 34.427 9.91563 34.6508C10.1394 34.8746 10.4429 35.0003 10.7593 35.0003H27.4226C27.7391 35.0003 28.0426 34.8746 28.2664 34.6508C28.4901 34.427 28.6158 34.1236 28.6158 33.8071C28.6158 33.4906 28.4901 33.1872 28.2664 32.9634C28.0426 32.7396 27.7391 32.6139 27.4226 32.6139H20.2842V9.54557H23.4247C23.5042 9.54557 23.5838 9.56943 23.6474 9.61398L26.3472 11.4499C26.8086 11.7633 27.3542 11.9319 27.9127 11.9319H29.3222L23.964 24.1502C23.8568 24.3945 23.8347 24.6677 23.901 24.9261C23.9673 25.1845 24.1183 25.4132 24.3299 25.5757C24.349 25.59 24.3299 25.5757 24.3331 25.5757C24.4909 25.6945 24.6556 25.804 24.8263 25.9034C25.1206 26.0816 25.5422 26.3107 26.0831 26.5398C27.5216 27.1411 29.066 27.4483 30.6252 27.4434C32.185 27.448 33.7299 27.1402 35.1688 26.5382C35.7066 26.3107 36.1298 26.0816 36.4257 25.9034C36.5958 25.803 36.7604 25.6936 36.9188 25.5757C37.1304 25.4132 37.2814 25.1845 37.3477 24.9261C37.4141 24.6677 37.3919 24.3945 37.2848 24.1502L31.9297 11.9319H34.4402C34.7567 11.9319 35.0601 11.8062 35.2839 11.5825C35.5077 11.3587 35.6334 11.0552 35.6334 10.7388C35.6334 10.4223 35.5077 10.1188 35.2839 9.89504C35.0601 9.67128 34.7567 9.54557 34.4402 9.54557H27.9142C27.8348 9.54551 27.7573 9.52168 27.6915 9.47716L24.9917 7.64123C24.53 7.32721 23.9846 7.15926 23.4263 7.15919H20.2842V4.37508ZM3.48884 24.1789C4.74105 24.8452 6.13836 25.1922 7.55682 25.1891C8.97528 25.1922 10.3726 24.8452 11.6248 24.1789L7.55682 14.9038L3.48884 24.1789ZM26.5731 24.1407C26.7035 24.2043 26.8499 24.2727 27.0106 24.3411C27.8538 24.6959 29.0867 25.057 30.6252 25.057C32.0277 25.061 33.4129 24.7477 34.6772 24.1407L30.6252 14.9022L26.5731 24.1407Z" fill="white"/>
<path d="M57.8778 3.31299C59.1426 3.31299 60.2224 3.58742 61.1173 4.13629C62.0122 4.68516 62.6863 5.46073 63.1397 6.46301C63.6051 7.46529 63.8378 8.62865 63.8378 9.95309C63.8378 11.2775 63.6051 12.4409 63.1397 13.4432C62.6863 14.4455 62.0122 15.221 61.1173 15.7699C60.2224 16.3188 59.1426 16.5932 57.8778 16.5932C56.1357 16.5932 54.7576 16.0921 53.7434 15.0898C52.7292 14.0756 52.1385 12.7034 51.9715 10.9733H50.2175V16.3068H47.5865V3.59935H50.2175V8.91502H51.9715C52.1385 7.17296 52.7292 5.80676 53.7434 4.81641C54.7576 3.81413 56.1357 3.31299 57.8778 3.31299ZM61.0815 9.54144C61.0815 8.28859 60.8071 7.28035 60.2582 6.5167C59.7212 5.74113 58.9278 5.35334 57.8778 5.35334C56.8397 5.35334 56.0462 5.74113 55.4974 6.5167C54.9604 7.28035 54.692 8.28859 54.692 9.54144V10.3647C54.692 11.6176 54.9604 12.6318 55.4974 13.4074C56.0462 14.171 56.8397 14.5528 57.8778 14.5528C58.9278 14.5528 59.7212 14.171 60.2582 13.4074C60.8071 12.6318 61.0815 11.6176 61.0815 10.3647V9.54144Z" fill="white"/>
<path d="M72.7907 3.59935C73.614 3.59935 74.3479 3.77833 74.9922 4.13629C75.6365 4.49425 76.1376 4.98942 76.4956 5.62181C76.8536 6.24227 77.0325 6.94625 77.0325 7.73376C77.0325 8.52126 76.8536 9.23121 76.4956 9.8636C76.1376 10.4841 75.6365 10.9733 74.9922 11.3312C74.3479 11.6892 73.614 11.8682 72.7907 11.8682H68.6921V16.3068H66.0611V3.59935H72.7907ZM74.3836 7.53688C74.3836 6.92835 74.1748 6.46301 73.7572 6.14085C73.3515 5.80676 72.8325 5.63971 72.2001 5.63971H68.6921V9.82781H72.2001C72.8206 9.82781 73.3396 9.66076 73.7572 9.32667C74.1748 8.99257 74.3836 8.52723 74.3836 7.93063V7.53688Z" fill="white"/>
<path d="M90.4094 3.59935V16.3068H87.8321V6.60619L82.4269 16.3068H79.2053V3.59935H81.7647V13.1926L87.1162 3.59935H90.4094Z" fill="white"/>
<path d="M98.8762 16.5932C97.5398 16.5932 96.4003 16.3188 95.4577 15.7699C94.527 15.2091 93.817 14.4276 93.3278 13.4253C92.8506 12.423 92.6119 11.2656 92.6119 9.95309C92.6119 8.64058 92.8506 7.48319 93.3278 6.48091C93.817 5.47863 94.527 4.70305 95.4577 4.15419C96.4003 3.59339 97.5398 3.31299 98.8762 3.31299C100.045 3.31299 101.072 3.51583 101.955 3.92151C102.838 4.3272 103.542 4.91186 104.067 5.6755C104.592 6.42721 104.908 7.31018 105.015 8.32439H102.295C102.116 7.41756 101.734 6.70165 101.149 6.17664C100.576 5.63971 99.8188 5.37124 98.8762 5.37124C97.7426 5.37124 96.8776 5.75903 96.281 6.5346C95.6844 7.29824 95.3861 8.30649 95.3861 9.55934V10.3468C95.3861 11.5997 95.6844 12.6139 96.281 13.3895C96.8895 14.1531 97.7546 14.5349 98.8762 14.5349C99.8546 14.5349 100.636 14.2545 101.221 13.6937C101.817 13.121 102.187 12.3514 102.33 11.3849H105.051C104.967 12.4349 104.663 13.3537 104.138 14.1412C103.613 14.9287 102.903 15.5372 102.008 15.9668C101.113 16.3844 100.069 16.5932 98.8762 16.5932Z" fill="white"/>
<path d="M109.991 5.63971H105.964V3.59935H116.702V5.63971H112.64V16.3068H109.991V5.63971Z" fill="white"/>
<path d="M50.8439 27.5149H46.8169V25.4745H57.5556V27.5149H53.4928V38.182H50.8439V27.5149Z" fill="white"/>
<path d="M70.9035 25.4745V38.182H68.3262V28.4813L62.9211 38.182H59.6994V25.4745H62.2588V35.0678L67.6103 25.4745H70.9035Z" fill="white"/>
<path d="M73.8041 25.4745H82.3234V27.5149H76.4351V38.182H73.8041V25.4745Z" fill="white"/>
<path d="M90.9857 25.4745C91.809 25.4745 92.5428 25.6535 93.1872 26.0114C93.8315 26.3694 94.3326 26.8646 94.6906 27.497C95.0485 28.1174 95.2275 28.8214 95.2275 29.6089C95.2275 30.3964 95.0485 31.1064 94.6906 31.7388C94.3326 32.3592 93.8315 32.8484 93.1872 33.2064C92.5428 33.5643 91.809 33.7433 90.9857 33.7433H86.8871V38.182H84.2561V25.4745H90.9857ZM92.5786 29.412C92.5786 28.8035 92.3698 28.3382 91.9522 28.016C91.5465 27.6819 91.0275 27.5149 90.3951 27.5149H86.8871V31.703H90.3951C91.0156 31.703 91.5346 31.5359 91.9522 31.2018C92.3698 30.8677 92.5786 30.4024 92.5786 29.8058V29.412Z" fill="white"/>
<path d="M103.054 38.4684C101.718 38.4684 100.578 38.1939 99.6354 37.6451C98.6928 37.0962 97.9769 36.3206 97.4877 35.3183C97.0104 34.3161 96.7718 33.1527 96.7718 31.8282C96.7718 30.5038 97.0104 29.3404 97.4877 28.3382C97.9769 27.3359 98.6928 26.5603 99.6354 26.0114C100.578 25.4626 101.718 25.1881 103.054 25.1881C104.39 25.1881 105.53 25.4626 106.472 26.0114C107.415 26.5603 108.125 27.3359 108.602 28.3382C109.091 29.3404 109.336 30.5038 109.336 31.8282C109.336 33.1527 109.091 34.3161 108.602 35.3183C108.125 36.3206 107.415 37.0962 106.472 37.6451C105.53 38.1939 104.39 38.4684 103.054 38.4684ZM103.054 36.428C104.187 36.428 105.053 36.0462 105.649 35.2825C106.258 34.507 106.562 33.4927 106.562 32.2399V31.4166C106.562 30.1637 106.258 29.1555 105.649 28.3919C105.053 27.6163 104.187 27.2285 103.054 27.2285C101.92 27.2285 101.049 27.6163 100.441 28.3919C99.8442 29.1555 99.5459 30.1637 99.5459 31.4166V32.2399C99.5459 33.4927 99.8442 34.507 100.441 35.2825C101.049 36.0462 101.92 36.428 103.054 36.428Z" fill="white"/>
<path d="M120.256 31.5598C120.912 31.7746 121.449 32.1325 121.867 32.6337C122.296 33.1229 122.511 33.7672 122.511 34.5666C122.511 35.2945 122.344 35.9328 122.01 36.4817C121.688 37.0306 121.235 37.4541 120.65 37.7524C120.065 38.0388 119.403 38.182 118.663 38.182H111.54V25.4745H118.198C118.902 25.4745 119.546 25.6058 120.131 25.8683C120.727 26.1188 121.199 26.5007 121.545 27.0137C121.903 27.5149 122.082 28.1234 122.082 28.8393C122.082 29.5433 121.903 30.128 121.545 30.5933C121.199 31.0586 120.769 31.3808 120.256 31.5598ZM114.171 27.497V30.7365H117.589C118.126 30.7365 118.568 30.6112 118.914 30.3606C119.26 30.1101 119.433 29.7282 119.433 29.2152V28.9646C119.433 28.4635 119.26 28.0936 118.914 27.8549C118.58 27.6163 118.144 27.497 117.607 27.497H114.171ZM119.827 34.3339C119.827 33.7851 119.648 33.3794 119.29 33.1169C118.932 32.8425 118.472 32.7052 117.912 32.7052H114.171V36.1595H117.912C118.472 36.1595 118.932 36.0342 119.29 35.7837C119.648 35.5212 119.827 35.1155 119.827 34.5666V34.3339Z" fill="white"/>
<path d="M132.385 35.4615H126.962L126.067 38.182H123.454L127.767 25.4745H131.687L136 38.182H133.28L132.385 35.4615ZM131.723 33.4033L129.682 27.1748L127.642 33.4033H131.723Z" fill="white"/>
</svg>
